<svg width="120" height="120" xmlns="http://www.w3.org/2000/svg">

 <g>
  <title>Layer 1</title>
  <g stroke="null">
   <title stroke="null">markdown</title>
   <path stroke="null" d="m108.47617,94.23l-96.95234,0a8.1796,8.0305 0 0 1 -8.1796,-8.0305l0,-52.399a8.1796,8.0305 0 0 1 8.1796,-8.0305l96.95234,0a8.1796,8.0305 0 0 1 8.1796,8.0305l0,52.40608a8.1796,8.0305 0 0 1 -8.1796,8.02341zm-96.95234,-63.11263a2.72814,2.67841 0 0 0 -2.73295,2.68313l0,52.40608a2.72814,2.67841 0 0 0 2.73295,2.67368l96.95234,0a2.72814,2.67841 0 0 0 2.72573,-2.67368l0,-52.40608a2.72814,2.67841 0 0 0 -2.72573,-2.68313l-96.95234,0z"/>
   <path stroke="null" d="m19.68659,78.18317l0,-36.37343l10.89571,0l10.89571,13.37078l10.89571,-13.36605l10.89571,0l0,36.37343l-10.89571,0l0,-20.86276l-10.89571,13.37078l-10.89571,-13.37078l0,20.85804l-10.89571,0zm68.09759,0l-16.34477,-17.6482l10.89571,0l0,-18.72051l10.89571,0l0,18.72051l10.89571,0l-16.34236,17.6482z"/>
  </g>
 </g>
</svg>